<?xml version="1.0" encoding="utf-8"?>
<!-- Generator: Adobe Illustrator 28.0.0, SVG Export Plug-In . SVG Version: 6.00 Build 0)  -->
<svg version="1.1" id="圖層_1" xmlns="http://www.w3.org/2000/svg" xmlns:xlink="http://www.w3.org/1999/xlink" x="0px" y="0px"
	 viewBox="0 0 50 50" style="enable-background:new 0 0 50 50;" xml:space="preserve">
<style type="text/css">
	.st0{fill:#F6CD54;}
	.st1{fill:#008DD4;}
</style>
<g>
	<path class="st0" d="M23.43,31.69c-0.6,0-1.08-0.48-1.08-1.08s0.48-1.08,1.08-1.08c1.01,0,1.84-0.82,1.84-1.84
		s-0.82-1.84-1.84-1.84c-0.6,0-1.08-0.48-1.08-1.08s0.48-1.08,1.08-1.08c1.01,0,1.84-0.82,1.84-1.84c0-1.01-0.82-1.84-1.84-1.84
		c-0.6,0-1.08-0.48-1.08-1.08s0.48-1.08,1.08-1.08c2.2,0,4,1.79,4,4c0,1.15-0.49,2.19-1.27,2.92c0.78,0.73,1.27,1.77,1.27,2.92
		C27.42,29.9,25.63,31.69,23.43,31.69z"/>
</g>
<g>
	<path class="st1" d="M24.88,44.69c-5.62,0-10.19-4.57-10.19-10.19V15.06c0-5.62,4.57-10.19,10.19-10.19s10.19,4.57,10.19,10.19
		c0,1.16-0.94,2.09-2.09,2.09s-2.09-0.94-2.09-2.09c0-3.31-2.69-6.01-6.01-6.01s-6.01,2.69-6.01,6.01V34.5
		c0,3.31,2.69,6.01,6.01,6.01s6.01-2.7,6.01-6.01c0-1.16,0.94-2.09,2.09-2.09s2.09,0.94,2.09,2.09
		C35.08,40.12,30.5,44.69,24.88,44.69z"/>
</g>
</svg>
