<?xml version="1.0" encoding="utf-8"?>
<!-- Generator: Adobe Illustrator 28.0.0, SVG Export Plug-In . SVG Version: 6.00 Build 0)  -->
<svg version="1.1" id="圖層_1" xmlns="http://www.w3.org/2000/svg" xmlns:xlink="http://www.w3.org/1999/xlink" x="0px" y="0px"
	 viewBox="0 0 209 39" style="enable-background:new 0 0 209 39;" xml:space="preserve">
<style type="text/css">
	.st0{fill:#F6CD54;}
	.st1{fill:#008DD4;}
</style>
<g>
	<g>
		<path class="st0" d="M26.04,24.11c-0.4,0-0.72-0.32-0.72-0.72s0.32-0.72,0.72-0.72c0.67,0,1.22-0.55,1.22-1.22
			s-0.55-1.22-1.22-1.22c-0.4,0-0.72-0.32-0.72-0.72s0.32-0.72,0.72-0.72c0.67,0,1.22-0.55,1.22-1.22c0-0.68-0.55-1.22-1.22-1.22
			c-0.4,0-0.72-0.32-0.72-0.72s0.32-0.72,0.72-0.72c1.47,0,2.66,1.2,2.66,2.66c0,0.77-0.33,1.46-0.84,1.94
			c0.52,0.49,0.84,1.18,0.84,1.94C28.71,22.91,27.51,24.11,26.04,24.11z"/>
	</g>
	<g>
		<path class="st1" d="M27.01,32.77c-3.75,0-6.79-3.05-6.79-6.79V13.02c0-3.75,3.05-6.79,6.79-6.79s6.79,3.05,6.79,6.79
			c0,0.77-0.62,1.4-1.4,1.4s-1.4-0.62-1.4-1.4c0-2.21-1.8-4-4-4s-4,1.8-4,4v12.96c0,2.21,1.8,4,4,4s4-1.8,4-4
			c0-0.77,0.62-1.39,1.4-1.39s1.4,0.62,1.4,1.39C33.81,29.73,30.76,32.77,27.01,32.77z"/>
	</g>
	<g>
		<g>
			<path class="st1" d="M56.23,29.99c-1.57,0-2.36-1.08-2.36-3.24c0-2.22,0.79-3.33,2.36-3.33c1.57,0,2.36,1.11,2.36,3.33
				C58.59,28.91,57.8,29.99,56.23,29.99z M56.23,29.16c0.94,0,1.41-0.8,1.41-2.41c0-1.67-0.47-2.5-1.41-2.5s-1.41,0.83-1.41,2.5
				C54.82,28.36,55.29,29.16,56.23,29.16z M57.71,31.97c-0.65,0-1.14-0.16-1.46-0.49c-0.33-0.33-0.49-0.83-0.49-1.49v-0.37h0.89V30
				c0,0.39,0.09,0.68,0.27,0.87c0.18,0.19,0.44,0.29,0.8,0.29h0.46l-0.09,0.81H57.71z"/>
			<path class="st1" d="M70.45,30.36c-2.07,0-3.1-1.14-3.1-3.43c0-1.08,0.26-1.92,0.78-2.52c0.52-0.59,1.26-0.89,2.21-0.89
				c0.46,0,0.86,0.07,1.2,0.22s0.59,0.35,0.75,0.62l-0.69,0.69c-0.14-0.21-0.32-0.38-0.54-0.49c-0.22-0.12-0.45-0.17-0.71-0.17
				c-0.6,0-1.09,0.22-1.45,0.65s-0.55,1.05-0.55,1.85c0,1.74,0.75,2.62,2.26,2.62c0.45,0,0.9-0.09,1.34-0.28l0.22,0.82
				C71.62,30.26,71.05,30.36,70.45,30.36z"/>
			<path class="st1" d="M83.18,30.27c-1.43,0-2.14-0.74-2.14-2.23v-4.52h0.94v4.52c0,0.44,0.1,0.78,0.29,1
				c0.2,0.23,0.5,0.34,0.93,0.34c0.81,0,1.22-0.45,1.22-1.34v-4.52h0.94v4.52c0,0.74-0.18,1.3-0.55,1.67
				C84.44,30.08,83.89,30.27,83.18,30.27z"/>
			<path class="st1" d="M94.12,24.41v-0.89h4.88v0.89H94.12z M96.09,30.18v-6.66h0.94v6.66H96.09z"/>
			<path class="st1" d="M107.76,30.18v-6.66h0.94v6.66H107.76z M107.76,24.41v-0.89h4.41v0.89H107.76z M107.76,27.29V26.4h3.56v0.89
				H107.76z M107.76,30.18v-0.89h4.41v0.89H107.76z"/>
			<path class="st0" d="M129.03,30.27c-2.07,0-3.1-1.14-3.1-3.43c0-1.08,0.26-1.92,0.78-2.52c0.52-0.59,1.26-0.89,2.21-0.89
				c0.46,0,0.86,0.07,1.2,0.22s0.59,0.35,0.75,0.62l-0.69,0.69c-0.14-0.21-0.32-0.38-0.54-0.49c-0.22-0.12-0.45-0.17-0.71-0.17
				c-0.6,0-1.09,0.22-1.45,0.65s-0.55,1.05-0.55,1.85c0,1.74,0.75,2.62,2.26,2.62c0.45,0,0.9-0.09,1.34-0.28l0.22,0.82
				C130.21,30.16,129.64,30.27,129.03,30.27z"/>
			<path class="st0" d="M139.22,30.18l1.92-6.66h1.36l1.92,6.66h-0.98l-1.58-5.85h-0.08l-1.58,5.85H139.22z M140.11,28.56v-0.89
				h3.38v0.89H140.11z"/>
			<path class="st0" d="M152.77,30.18v-6.66h0.94v6.66H152.77z M153.59,28.11v-0.89h1.13c0.51,0,0.9-0.13,1.16-0.38
				c0.26-0.25,0.39-0.63,0.39-1.12c0-0.43-0.13-0.76-0.39-0.98c-0.26-0.22-0.65-0.33-1.16-0.33h-1.12v-0.89h1.12
				c0.83,0,1.47,0.19,1.9,0.56s0.64,0.92,0.64,1.65c0,0.78-0.21,1.38-0.64,1.78c-0.43,0.41-1.06,0.61-1.9,0.61H153.59z"/>
			<path class="st0" d="M168.07,30.27c-1.64,0-2.46-1.12-2.46-3.38c0-2.31,0.82-3.47,2.46-3.47s2.46,1.16,2.46,3.47
				C170.53,29.15,169.71,30.27,168.07,30.27z M168.07,29.41c0.98,0,1.47-0.84,1.47-2.51c0-1.74-0.49-2.61-1.47-2.61
				s-1.47,0.87-1.47,2.61C166.6,28.57,167.09,29.41,168.07,29.41z"/>
			<path class="st0" d="M181.34,30.27c-1.64,0-2.46-1.12-2.46-3.38c0-2.31,0.82-3.47,2.46-3.47s2.46,1.16,2.46,3.47
				C183.79,29.15,182.97,30.27,181.34,30.27z M181.34,29.41c0.98,0,1.47-0.84,1.47-2.51c0-1.74-0.49-2.61-1.47-2.61
				s-1.47,0.87-1.47,2.61C179.86,28.57,180.35,29.41,181.34,29.41z"/>
		</g>
		<g>
			<path d="M52.27,15.38l2.15-8.24h1.01l2.15,8.24l1.86-8.24h1.53l-2.57,10.51h-1.5l-1.94-7.34l-2.02,7.34h-1.5L48.88,7.14h1.53
				L52.27,15.38z"/>
			<path d="M66.16,17.64l3.87-10.51h1.26l3.87,10.51h-1.59l-2.91-8.48l-2.91,8.48H66.16z M67.95,15.34v-1.4h5.53v1.4H67.95z"/>
			<path d="M82.08,17.64V7.14h1.47v10.51H82.08z M82.82,17.64v-1.4h6.01v1.4H82.82z"/>
			<path d="M95.89,17.64V7.14h1.47v10.51H95.89z M96.63,17.64v-1.4h6.01v1.4H96.63z"/>
			<path d="M109.71,17.64V7.14h1.47v10.51H109.71z M110.47,13.57v-1.4h3.36c0.48,0,0.87-0.17,1.16-0.5
				c0.29-0.33,0.44-0.77,0.44-1.31c0-0.55-0.15-0.99-0.44-1.32c-0.29-0.33-0.68-0.5-1.16-0.5h-3.36v-1.4h3.31
				c0.64,0,1.19,0.13,1.66,0.4c0.47,0.27,0.84,0.64,1.1,1.12c0.26,0.48,0.39,1.05,0.39,1.7c0,0.65-0.13,1.21-0.39,1.69
				c-0.26,0.48-0.63,0.85-1.1,1.12s-1.03,0.4-1.66,0.4H110.47z"/>
			<path d="M122.59,17.64l3.87-10.51h1.26l3.87,10.51H130l-2.91-8.48l-2.91,8.48H122.59z M124.37,15.34v-1.4h5.53v1.4H124.37z"/>
			<path d="M138.51,17.64V7.14h1.47v10.51H138.51z M139.27,13.57v-1.4h3.36c0.48,0,0.87-0.17,1.16-0.5
				c0.29-0.33,0.44-0.77,0.44-1.31c0-0.55-0.15-0.99-0.44-1.32s-0.68-0.5-1.16-0.5h-3.36v-1.4h3.31c0.64,0,1.19,0.13,1.66,0.4
				c0.47,0.27,0.84,0.64,1.1,1.12c0.26,0.48,0.39,1.05,0.39,1.7c0,0.65-0.13,1.21-0.39,1.69c-0.26,0.48-0.63,0.85-1.1,1.12
				c-0.47,0.27-1.03,0.4-1.66,0.4H139.27z"/>
			<path d="M152.91,17.64V7.14h1.47v10.51H152.91z M153.62,8.54v-1.4h6.03v1.4H153.62z M153.62,13.13v-1.4h5.24v1.4H153.62z
				 M153.62,17.64v-1.4h6.03v1.4H153.62z"/>
			<path d="M167.08,17.64V7.13h1.47v10.51H167.08z M167.72,13.2v-1.4h3.58c0.43,0,0.77-0.15,1.03-0.45c0.26-0.3,0.39-0.69,0.39-1.19
				s-0.13-0.89-0.39-1.19c-0.26-0.3-0.6-0.45-1.03-0.45h-3.58v-1.4h3.53c0.61,0,1.15,0.13,1.6,0.38c0.46,0.25,0.81,0.61,1.07,1.06
				c0.25,0.45,0.38,0.99,0.38,1.6c0,0.61-0.13,1.14-0.38,1.59c-0.25,0.46-0.61,0.81-1.07,1.06s-0.99,0.38-1.6,0.38H167.72z
				 M172.99,17.64l-2.41-4.77l1.47-0.33l2.69,5.1H172.99z"/>
			<path d="M184.92,17.75c-0.51,0-0.99-0.05-1.44-0.14c-0.45-0.1-0.87-0.24-1.27-0.43c-0.39-0.19-0.76-0.43-1.1-0.72l0.92-1.13
				c0.4,0.35,0.84,0.61,1.32,0.78c0.48,0.17,1,0.26,1.57,0.26c0.76,0,1.35-0.14,1.77-0.43c0.42-0.28,0.63-0.68,0.63-1.19v-0.01
				c0-0.4-0.11-0.71-0.32-0.92s-0.49-0.37-0.83-0.47c-0.34-0.1-0.72-0.19-1.13-0.26c-0.39-0.07-0.79-0.15-1.2-0.24
				c-0.4-0.09-0.77-0.23-1.11-0.43c-0.34-0.2-0.61-0.48-0.81-0.84s-0.31-0.85-0.31-1.47v-0.01c0-0.98,0.33-1.74,0.98-2.27
				s1.57-0.81,2.75-0.81c0.56,0,1.12,0.09,1.66,0.27c0.54,0.18,1.06,0.46,1.58,0.83l-0.84,1.17c-0.4-0.3-0.8-0.52-1.2-0.67
				s-0.8-0.22-1.2-0.22c-0.72,0-1.28,0.14-1.67,0.43s-0.6,0.69-0.6,1.22v0.01c0,0.4,0.12,0.7,0.35,0.9
				c0.23,0.21,0.53,0.36,0.91,0.46c0.37,0.1,0.77,0.19,1.2,0.28c0.39,0.08,0.77,0.17,1.16,0.28c0.39,0.11,0.74,0.27,1.05,0.47
				s0.57,0.49,0.76,0.84s0.29,0.82,0.29,1.4v0.01c0,0.97-0.34,1.72-1.01,2.25C187.1,17.49,186.15,17.75,184.92,17.75z"/>
		</g>
	</g>
</g>
</svg>
